<?xml version="1.0" standalone="no"?>
<!DOCTYPE svg PUBLIC "-//W3C//DTD SVG 20010904//EN"
 "http://www.w3.org/TR/2001/REC-SVG-20010904/DTD/svg10.dtd">
<svg version="1.0" xmlns="http://www.w3.org/2000/svg"
 width="1200.000000pt" height="667.000000pt" viewBox="0 0 1200.000000 667.000000"
 preserveAspectRatio="xMidYMid meet">
<metadata>
Created by potrace 1.16, written by Peter Selinger 2001-2019
</metadata>
<g transform="translate(0.000000,667.000000) scale(0.100000,-0.100000)"
fill="#000000" stroke="none">
<path d="M0 3335 l0 -3335 355 0 355 0 0 115 c0 84 7 150 25 241 39 191 83
294 177 409 26 33 57 80 68 105 11 25 27 56 36 70 8 14 31 52 50 86 33 55 46
66 141 123 85 51 111 73 139 114 38 58 83 116 152 195 88 103 224 292 282 393
24 41 59 101 78 134 59 100 292 385 332 405 19 9 72 29 117 44 91 30 85 24
253 245 61 80 132 130 262 183 40 16 82 37 93 47 11 10 45 34 75 53 30 19 80
51 110 70 30 19 87 52 125 73 39 20 79 45 90 54 33 28 73 41 129 41 29 0 75 7
102 15 27 8 101 23 164 34 90 15 132 28 191 58 42 22 114 50 160 62 46 13 111
36 144 51 33 16 98 37 145 48 197 47 268 62 314 64 l49 3 4 -35 c3 -19 9 -39
14 -44 5 -6 9 -39 9 -73 0 -75 19 -120 55 -129 45 -11 56 1 54 58 -1 35 8 80
26 133 45 133 75 159 75 67 1 -70 17 -168 33 -199 8 -16 21 -41 30 -58 9 -16
26 -51 38 -77 13 -27 46 -72 76 -100 29 -29 62 -72 73 -96 11 -24 28 -45 38
-48 37 -12 154 -69 164 -81 31 -38 -71 -59 -131 -28 -28 14 -29 14 -24 -6 5
-17 -10 -36 -68 -89 l-73 -67 17 -26 c9 -14 20 -44 23 -67 6 -34 3 -44 -15
-61 -12 -11 -19 -24 -16 -29 10 -17 -46 -42 -81 -35 -19 3 -34 2 -34 -3 0 -16
55 -61 93 -77 21 -9 37 -20 35 -25 -7 -21 -239 -226 -308 -272 -153 -103 -441
-253 -505 -264 -93 -15 -128 -56 -127 -147 1 -32 8 -80 16 -105 8 -26 20 -78
26 -117 7 -38 17 -81 22 -95 11 -26 73 -333 86 -426 10 -68 24 -84 66 -77 22
3 42 -1 59 -12 19 -12 30 -14 45 -6 23 12 32 5 32 -25 0 -19 -6 -22 -45 -26
-25 -2 -50 1 -55 6 -22 22 -28 -13 -21 -123 1 -20 18 -2 23 23 3 17 5 16 17
-7 13 -24 12 -29 -4 -47 -16 -18 -17 -24 -4 -72 11 -42 19 -54 37 -56 12 -2
22 1 22 7 0 6 12 10 28 10 24 -2 24 -2 4 -6 -25 -5 -47 -47 -37 -71 7 -20 63
-8 87 18 10 11 24 20 31 20 29 1 42 22 49 82 4 35 12 94 19 131 l11 68 -41 39
c-47 45 -50 53 -17 44 35 -8 38 14 16 124 -30 146 -30 145 35 165 31 9 63 17
73 17 45 0 167 48 210 83 26 21 65 52 87 70 65 53 94 89 97 120 2 23 14 38 52
64 44 30 51 32 70 20 12 -8 23 -24 24 -37 4 -25 -26 -89 -43 -92 -5 0 -16 -2
-24 -2 -26 -2 -23 -25 4 -32 42 -10 118 3 176 30 29 14 58 26 64 26 13 0 125
-115 149 -153 9 -15 32 -35 51 -44 61 -29 125 15 146 102 6 28 13 56 15 63 6
21 34 13 44 -12 5 -13 19 -27 32 -31 13 -4 46 -28 73 -54 28 -26 68 -59 90
-72 114 -72 221 -129 243 -129 5 0 32 -18 58 -40 27 -22 53 -40 59 -40 6 0 35
-16 65 -35 29 -19 58 -36 64 -38 8 -3 7 -8 -1 -18 -8 -10 -10 -38 -6 -87 5
-67 8 -74 37 -94 17 -12 33 -25 36 -29 3 -4 19 -9 35 -11 27 -3 30 0 37 37 4
22 7 64 7 92 1 48 -1 53 -23 59 -14 3 -27 12 -30 20 -4 10 3 14 29 14 18 0 36
3 39 8 24 40 40 737 18 810 -10 32 -37 68 -100 134 -121 126 -123 128 -148
128 -24 0 -37 21 -27 46 3 8 0 26 -7 40 -11 19 -11 32 -1 66 17 56 28 68 62
68 16 0 29 2 29 6 0 18 -72 134 -108 174 -48 55 -52 76 -18 92 36 16 38 32 13
96 -17 44 -40 74 -102 135 -44 42 -83 77 -87 77 -11 0 -108 69 -142 102 -16
15 -38 30 -48 34 -25 8 -23 21 10 53 52 52 122 140 171 213 57 87 72 100 131
126 25 11 56 31 69 46 25 27 61 115 61 151 0 37 -41 130 -67 151 -26 22 -27
47 -3 84 19 30 35 10 142 -180 29 -50 48 -70 70 -70 11 0 28 -5 39 -11 16 -8
38 -4 100 16 l80 27 94 -16 c52 -9 136 -30 187 -47 83 -28 108 -31 233 -33
116 -3 164 -9 280 -36 77 -18 161 -43 187 -56 62 -31 188 -66 268 -73 68 -7
103 -23 308 -143 45 -26 85 -48 89 -48 3 0 27 -16 54 -35 26 -19 81 -51 121
-71 92 -46 163 -91 232 -148 58 -47 78 -55 197 -81 52 -11 95 -28 135 -54 32
-21 91 -55 129 -75 39 -21 84 -49 100 -62 138 -112 290 -220 340 -243 174 -82
242 -117 369 -186 77 -42 174 -90 217 -106 111 -43 273 -153 334 -228 110
-133 196 -308 264 -539 l31 -104 -10 -201 c-6 -111 -13 -215 -16 -232 -15 -69
-53 -132 -130 -211 -90 -93 -203 -169 -354 -241 -103 -50 -108 -51 -260 -67
-91 -9 -188 -13 -235 -9 -57 4 -102 1 -150 -10 -103 -23 -321 -45 -570 -57
-215 -10 -521 -31 -700 -48 -89 -9 -135 -23 -135 -42 0 -7 636 -10 1760 -10
l1760 0 0 3335 0 3335 -1149 0 -1149 0 -6 -35 c-4 -19 -2 -43 3 -54 8 -14 5
-36 -10 -85 -12 -36 -25 -66 -29 -66 -5 0 -12 -9 -15 -20 -7 -23 -45 -28 -45
-6 0 8 5 16 11 18 7 2 7 12 0 31 -18 46 -16 123 2 142 12 11 14 22 8 33 -4 9
-6 23 -4 30 4 9 -32 12 -158 12 l-163 0 31 -32 c29 -31 31 -38 30 -98 -1 -36
-6 -71 -10 -78 -5 -7 -5 -21 -2 -32 10 -32 -4 -60 -30 -60 -31 0 -55 25 -55
59 0 15 -5 32 -12 39 -9 9 -8 16 5 30 23 25 21 36 -5 56 l-23 15 25 22 c16 13
25 32 25 50 l0 29 -1597 0 c-879 0 -1598 -2 -1598 -4 0 -2 31 -30 70 -62 83
-69 197 -207 235 -285 22 -44 26 -64 21 -92 -7 -35 -36 -61 -36 -31 0 19 -31
74 -42 74 -4 0 -8 -6 -8 -13 0 -8 -11 -24 -25 -37 l-25 -23 -11 31 c-13 38
-29 33 -29 -8 0 -16 -4 -32 -10 -35 -5 -3 -10 -17 -10 -30 0 -28 -15 -41 -27
-23 -4 7 -9 56 -10 108 -1 52 -5 107 -9 123 -4 17 -2 27 5 27 6 0 11 9 11 20
0 11 -4 20 -10 20 -5 0 -10 11 -10 25 0 13 -9 39 -20 57 -11 18 -20 41 -20 50
0 19 -31 53 -78 87 -30 21 -34 21 -661 21 -628 0 -630 0 -641 -21 -9 -17 -8
-23 7 -35 16 -12 16 -15 3 -24 -34 -22 -65 5 -40 35 9 11 9 18 -3 30 -14 13
-271 15 -2361 15 l-2346 0 0 -3335z m7664 3289 c27 -11 20 -69 -10 -89 -21
-14 -24 -19 -13 -26 12 -8 12 -11 -1 -20 -12 -8 -9 -9 11 -5 24 5 27 2 33 -28
10 -54 0 -66 -54 -66 -63 0 -77 17 -54 62 10 19 19 58 19 91 2 44 7 61 21 72
22 16 26 17 48 9z m-6542 -81 c4 -68 0 -96 -14 -104 -19 -12 -86 -11 -93 1 -5
8 -11 8 -20 0 -17 -14 -26 12 -20 55 2 17 4 37 4 46 1 20 45 37 99 38 42 1 42
1 44 -36z m8222 -233 c5 -5 3 -30 -3 -57 -9 -35 -9 -57 -2 -76 7 -19 7 -36 0
-54 -6 -17 -7 -47 -3 -73 9 -55 7 -71 -13 -85 -13 -10 -13 -15 -2 -34 12 -19
12 -23 -3 -32 -22 -12 -23 -37 -4 -58 25 -28 21 -240 -4 -266 -14 -13 -18 -12
-42 8 -25 21 -27 28 -32 136 -3 68 -1 121 5 132 7 13 6 26 -2 40 -9 17 -7 25
11 44 l22 23 -27 18 c-23 15 -26 22 -20 53 3 20 15 48 25 63 17 23 17 28 5 38
-19 16 -19 34 0 69 12 23 12 34 2 61 -11 29 -10 33 12 51 23 19 54 18 75 -1z
m-4529 -39 c-3 -6 7 -9 22 -8 24 2 28 -2 31 -26 2 -19 -2 -29 -15 -33 -10 -3
-32 -12 -50 -20 -17 -8 -35 -14 -41 -14 -21 0 -117 -59 -120 -74 -4 -19 20
-21 49 -5 11 5 30 9 42 7 18 -2 13 -8 -28 -32 -27 -16 -60 -42 -73 -57 -13
-16 -29 -29 -37 -29 -7 0 -18 -6 -24 -14 -10 -11 -8 -15 6 -18 13 -2 5 -11
-30 -31 -26 -15 -52 -25 -57 -22 -6 3 -10 0 -10 -9 0 -8 -3 -16 -7 -18 -5 -1
-21 -22 -37 -45 -16 -24 -32 -40 -37 -37 -5 3 -9 -8 -9 -24 0 -27 -28 -72 -45
-72 -12 0 2 111 16 124 9 8 10 6 6 -11 -3 -13 -1 -23 4 -23 5 0 9 9 9 19 0 10
7 21 15 25 8 3 15 13 15 22 0 29 54 134 72 140 23 7 23 30 1 43 -15 8 -14 13
14 41 18 18 40 38 51 44 68 40 144 76 159 76 15 0 16 2 3 10 -15 9 -7 25 13
25 7 0 13 10 15 22 3 20 13 25 70 32 7 0 11 -3 7 -8z m4851 -109 c8 -5 7 -21
-3 -57 -8 -27 -17 -64 -20 -82 -3 -18 -12 -33 -21 -35 -37 -9 -49 3 -60 60
l-11 57 35 33 c33 31 58 39 80 24z m-3786 -81 c27 -28 42 -33 153 -47 49 -7
50 -8 47 -62 -1 -23 5 -38 20 -50 23 -18 22 -26 -8 -72 -2 -2 -8 2 -13 10 -9
12 -10 12 -5 -3 3 -10 6 -24 6 -30 0 -8 4 -7 12 1 18 18 88 16 88 -3 0 -8 -4
-15 -10 -15 -5 0 -10 -22 -10 -50 0 -46 2 -50 24 -50 17 0 26 -7 30 -25 4 -14
15 -34 26 -45 11 -11 19 -20 18 -20 -56 -11 -98 -7 -117 11 -11 11 -21 15 -21
10 0 -30 -108 -20 -208 20 -13 5 -33 9 -45 9 -12 0 -34 6 -49 14 -24 13 -31
12 -60 -4 -48 -25 -43 -45 12 -46 89 -2 87 -1 100 -49 11 -40 16 -45 42 -45
16 0 27 4 23 9 -3 5 0 13 6 17 6 3 15 1 19 -6 5 -8 22 -11 44 -8 20 2 36 0 36
-4 0 -4 5 -8 11 -8 5 0 7 5 4 10 -15 24 29 7 54 -21 26 -28 33 -31 80 -28 28
2 51 1 51 -3 0 -5 6 -8 13 -8 7 0 29 -14 50 -31 30 -24 37 -37 37 -65 0 -33
28 -74 50 -74 6 0 10 -4 10 -10 0 -5 -12 -10 -27 -10 l-28 0 32 -21 c36 -23
35 -44 0 -34 -56 16 -75 27 -70 42 5 12 -1 13 -31 8 -21 -4 -41 -3 -49 3 -17
15 -169 52 -211 52 -33 0 -41 -7 -37 -33 1 -5 -19 -7 -43 -4 -25 2 -43 0 -41
-4 3 -3 -28 -23 -69 -43 -66 -33 -82 -37 -163 -39 -75 -2 -94 1 -110 16 -11 9
-30 17 -44 17 -13 0 -48 11 -77 25 -30 14 -65 25 -77 25 -13 0 -28 6 -32 13
-13 22 -79 28 -118 11 -44 -18 -149 -19 -163 -1 -6 7 -9 22 -6 34 6 21 70 63
98 63 9 0 21 9 28 20 10 16 24 20 65 20 46 0 54 3 75 30 68 89 62 85 122 84
53 -2 56 0 56 22 0 17 -6 24 -20 24 -11 0 -20 5 -20 10 0 7 -6 7 -20 0 -29
-15 -60 7 -56 40 5 38 17 62 48 98 15 18 28 41 28 51 0 19 33 41 68 44 16 1
22 8 22 23 0 12 -6 24 -12 27 -10 3 -10 9 -1 25 10 17 10 24 -4 37 -22 22 -9
31 62 43 50 8 61 7 71 -5 9 -13 16 -14 47 -2 20 7 37 16 37 21 0 15 62 40 86
34 19 -5 24 -2 24 14 0 27 8 25 40 -9z m1784 -61 c30 -11 33 -26 9 -52 -14
-16 -15 -24 -5 -52 17 -46 15 -64 -9 -71 -16 -5 -18 -9 -8 -21 9 -11 8 -18 -5
-33 -15 -16 -15 -20 -1 -31 13 -11 13 -15 0 -33 -13 -19 -13 -23 6 -43 17 -18
19 -26 10 -42 -8 -15 -8 -49 -1 -113 5 -51 5 -99 1 -108 -5 -9 -7 -23 -5 -31
20 -96 16 -133 -17 -150 -14 -8 -30 -8 -57 1 -52 16 -58 24 -39 52 13 20 15
50 11 183 -4 158 -4 160 21 194 17 23 21 36 14 41 -8 4 -9 23 -5 54 7 41 5 50
-16 72 -16 18 -19 27 -10 30 6 3 12 11 12 19 0 8 7 17 15 20 23 9 18 25 -17
61 -17 18 -29 35 -26 38 3 3 25 9 49 14 24 5 45 9 46 10 1 1 13 -3 27 -9z
m2005 -89 c13 -8 13 -12 0 -27 -7 -9 -14 -38 -15 -63 -2 -78 -10 -93 -52 -89
-34 3 -38 6 -46 41 -8 30 -7 40 5 47 11 8 12 13 2 30 -7 11 -13 26 -13 33 0
29 87 48 119 28z m1576 -367 c13 -13 14 -28 9 -78 -3 -33 -10 -65 -15 -70 -5
-6 -9 -20 -9 -33 0 -13 -4 -23 -10 -23 -5 0 -10 10 -10 23 0 46 -11 68 -31 62
-15 -5 -19 -1 -19 15 0 12 -4 29 -9 39 -7 11 -5 27 6 49 12 25 22 32 44 32 15
0 35 -7 44 -16z m610 -77 c12 -19 13 -29 3 -55 -10 -27 -10 -37 5 -61 15 -25
15 -32 4 -42 -7 -7 -12 -23 -9 -35 2 -12 -1 -25 -7 -28 -6 -4 -11 -2 -11 5 0
9 -3 9 -14 0 -21 -17 -67 -9 -101 17 -34 27 -29 42 26 81 19 13 26 21 17 18
-11 -4 -15 -2 -12 6 2 7 -4 25 -14 42 -18 28 -18 30 2 52 28 32 90 32 111 0z
m-2228 -144 c4 -9 1 -43 -6 -77 -6 -34 -11 -71 -11 -83 0 -22 -42 -53 -70 -53
-21 0 -39 27 -39 56 0 16 0 50 -2 75 -2 40 3 52 32 87 33 39 34 40 62 26 15
-8 31 -22 34 -31z m-318 -115 c8 -22 3 -47 -29 -153 -10 -33 -19 -89 -19 -124
-1 -35 -6 -73 -12 -83 -6 -11 -8 -39 -5 -62 3 -23 -1 -69 -10 -106 -8 -36 -17
-76 -20 -90 -3 -14 -7 -35 -10 -47 -3 -14 -12 -23 -23 -23 -23 0 -33 51 -16
83 7 13 9 50 7 90 -4 60 -2 71 18 92 22 24 23 26 8 64 -13 33 -14 44 -3 64 19
36 25 170 8 185 -19 19 -16 60 7 79 11 10 20 23 20 29 0 30 68 32 79 2z
m-4263 -73 c31 -29 37 -30 58 -10 24 25 50 17 69 -21 23 -47 22 -54 -11 -54
-16 0 -32 8 -40 20 -7 11 -21 20 -32 20 -28 0 -37 -28 -14 -45 11 -8 14 -15 9
-15 -6 0 -16 5 -22 11 -9 9 -19 6 -39 -10 -34 -26 -35 -26 -68 4 -18 16 -35
24 -46 20 -25 -8 -35 12 -20 40 11 20 47 41 100 59 25 8 28 7 56 -19z m2575
-47 c51 -16 61 -47 29 -90 -21 -28 -21 -31 -5 -48 16 -18 16 -22 1 -53 -21
-46 -39 -59 -73 -55 -26 3 -28 7 -31 50 -3 45 -2 46 33 58 l36 12 -43 23 c-51
27 -57 45 -28 85 24 34 26 34 81 18z m-810 -119 c5 -41 13 -91 18 -112 9 -36
5 -63 -15 -111 -7 -19 -8 -19 -15 0 -4 10 -8 36 -8 57 -1 36 -13 48 -26 27 -9
-15 -25 -2 -25 19 0 10 -9 29 -20 43 -13 17 -16 28 -9 35 6 6 12 34 13 62 1
28 4 52 7 53 39 24 45 25 57 13 8 -7 18 -46 23 -86z m-1114 -36 c18 -20 33
-40 33 -44 0 -31 48 -125 91 -178 39 -49 46 -63 30 -58 -11 3 -20 2 -19 -2 1
-7 -10 -39 -23 -63 -14 -27 -2 -43 56 -70 l55 -26 0 25 c0 21 3 23 23 17 48
-14 72 -58 56 -100 -6 -17 -3 -19 25 -16 40 4 86 -33 127 -105 35 -61 37 -58
-56 -119 -55 -35 -68 -39 -150 -46 -49 -4 -116 -11 -149 -16 -43 -6 -73 -5
-110 5 -28 8 -82 16 -120 18 -64 4 -102 14 -60 16 10 1 28 2 39 3 11 0 20 8
20 16 0 10 -8 14 -23 12 -20 -2 -22 0 -9 12 9 9 34 15 65 14 28 0 56 3 61 7
17 10 13 23 -9 30 -41 13 -22 33 38 40 31 3 66 10 77 15 11 5 45 14 75 21 89
19 103 24 114 42 13 21 -9 40 -36 31 -9 -3 -35 0 -58 6 -36 10 -45 8 -83 -15
-51 -29 -67 -31 -67 -9 0 11 -6 15 -18 12 -10 -3 -23 1 -30 9 -7 7 -17 11 -21
8 -5 -2 -16 4 -26 15 -13 15 -16 29 -11 67 14 118 23 259 16 268 -16 22 -19
75 -5 102 8 15 15 37 15 49 0 18 17 44 29 44 3 0 20 -17 38 -37z m3903 -84 c0
-4 -7 -10 -16 -13 -12 -5 -14 -14 -9 -46 5 -32 3 -41 -9 -46 -20 -8 -21 -33
-1 -40 20 -8 19 -40 -1 -48 -24 -9 -102 -7 -108 3 -3 5 1 21 9 37 12 24 12 29
-2 39 -19 14 -10 33 23 45 15 6 22 15 18 25 -4 10 0 15 13 15 12 0 23 11 30
31 11 27 14 29 32 17 12 -7 21 -16 21 -19z m2248 -29 c19 0 14 -18 -8 -25 -21
-7 -27 -39 -10 -50 6 -4 8 -10 5 -15 -3 -5 -6 -25 -7 -44 -1 -23 -9 -43 -23
-56 -21 -20 -22 -23 -8 -51 8 -17 21 -33 29 -36 48 -18 -28 -54 -78 -37 -12 4
-28 7 -34 6 -6 -1 -17 5 -24 13 -10 13 -10 19 2 33 26 29 31 62 14 81 -14 15
-15 23 -5 44 9 20 9 30 1 40 -8 9 -9 29 -4 57 9 51 30 61 97 49 22 -5 46 -8
53 -9z m-5973 -20 c5 -8 11 -7 21 1 12 10 28 6 82 -21 110 -54 106 -53 161
-41 75 16 106 -3 81 -50 -9 -15 -22 -19 -69 -19 -72 0 -151 14 -199 36 -43 20
-102 72 -102 91 0 16 16 17 25 3z m698 -55 c6 -16 20 -46 33 -66 15 -24 21
-45 17 -59 -4 -16 0 -28 14 -39 15 -12 19 -21 13 -36 -5 -11 -9 -14 -9 -7 -2
23 -51 -18 -51 -43 0 -12 -9 -30 -20 -40 -11 -10 -20 -26 -20 -37 0 -14 -8
-18 -31 -18 -43 0 -99 -28 -99 -50 0 -10 6 -20 13 -23 8 -3 6 -7 -6 -12 -22
-9 -68 13 -74 35 -5 17 -57 50 -79 50 -8 0 -14 6 -14 14 0 16 -37 42 -73 51
-14 4 -28 13 -30 20 -3 7 -21 15 -40 19 -18 3 -43 17 -54 30 -11 12 -31 30
-43 39 -13 9 -21 19 -18 22 3 3 57 7 119 9 161 5 208 22 287 103 48 49 67 63
82 58 12 -4 20 -2 20 5 0 6 12 10 27 8 19 -2 29 -11 36 -33z m256 -207 c-6
-45 -17 -92 -24 -104 -10 -16 -10 -26 1 -53 8 -18 14 -47 14 -65 -1 -41 -37
-107 -77 -141 -29 -23 -35 -25 -47 -12 -8 8 -12 18 -8 21 3 4 0 11 -8 16 -12
7 -11 12 4 29 10 11 23 18 27 15 5 -3 9 2 9 10 0 9 4 16 9 16 5 0 14 14 20 30
9 27 8 30 -10 30 -10 0 -19 -5 -19 -12 0 -9 -3 -9 -12 0 -8 8 -8 15 1 26 7 9
11 21 8 28 -3 8 -6 6 -6 -5 -1 -15 -5 -14 -28 8 -15 14 -32 25 -36 25 -5 0 -1
7 7 16 15 14 21 52 18 97 -1 12 6 17 23 17 14 0 29 8 35 20 6 11 21 20 33 20
12 0 33 13 47 30 13 16 26 28 28 26 2 -2 -2 -42 -9 -88z m789 69 c16 -13 15
-56 -2 -63 -11 -4 -9 -10 8 -28 27 -26 42 -102 25 -122 -14 -17 -93 -18 -106
-1 -19 23 -21 59 -7 99 12 35 12 43 -1 61 -21 31 -19 44 12 61 27 14 46 12 71
-7z m-2463 -16 l120 -6 2 -30 c3 -33 -21 -55 -104 -95 -23 -11 -46 -28 -51
-37 -7 -12 -20 -14 -62 -10 -51 6 -70 17 -70 44 0 7 -13 19 -30 28 -66 34 -12
142 60 117 8 -3 69 -8 135 -11z m4409 -42 c6 -5 3 -16 -7 -27 -20 -22 -21 -32
-4 -32 8 0 20 -11 27 -25 11 -21 11 -27 -3 -42 -8 -10 -20 -30 -26 -46 -8 -19
-17 -27 -35 -27 -13 0 -30 -2 -38 -5 -7 -3 -19 -1 -27 4 -12 8 -12 12 -2 25
10 12 9 17 -8 28 -26 16 -27 42 -2 77 12 17 18 36 14 49 -4 17 1 23 28 30 35
10 67 7 83 -9z m2255 -95 c42 -54 19 -94 -54 -94 -29 0 -36 -3 -33 -17 2 -12
13 -18 28 -18 36 0 54 -13 40 -30 -6 -7 -8 -25 -4 -39 8 -32 -12 -59 -36 -51
-9 3 -23 -1 -30 -10 -7 -8 -21 -15 -31 -15 -15 0 -19 7 -19 35 0 31 3 35 28
36 l27 0 -22 16 c-25 17 -29 43 -11 72 9 15 7 24 -10 46 -38 47 -26 79 33 88
63 9 74 7 94 -19z m-2631 -76 c15 -15 15 -53 1 -80 -6 -12 -11 -41 -11 -66 2
-55 -12 -82 -41 -83 l-22 0 23 -11 c27 -14 29 -44 2 -53 -30 -9 -42 4 -37 39
2 17 0 44 -6 59 -8 24 -6 32 14 53 21 22 22 28 11 57 -16 45 -15 54 8 77 23
23 41 25 58 8z m318 -74 c15 -4 20 -11 17 -25 -3 -10 -1 -19 5 -19 18 0 24
-39 12 -76 -9 -27 -9 -42 0 -64 9 -21 9 -33 0 -50 -9 -18 -8 -25 5 -40 16 -18
16 -22 -4 -63 -21 -43 -23 -44 -64 -42 -23 1 -45 3 -49 4 -3 0 -6 42 -6 92 1
77 4 93 20 102 19 12 25 47 8 47 -15 0 -12 38 6 65 10 16 14 34 10 50 -7 26 0
30 40 19z m2209 -154 c13 0 27 5 30 10 4 7 11 8 18 2 7 -5 27 -13 45 -17 33
-7 43 -29 17 -39 -17 -6 -20 -42 -5 -51 19 -12 10 -24 -26 -37 -29 -10 -35
-17 -31 -35 2 -13 -2 -24 -11 -28 -19 -7 -52 23 -45 41 3 9 -2 14 -15 14 -21
0 -32 24 -32 77 0 37 20 94 27 76 3 -7 15 -13 28 -13z m-5560 -110 c14 -27 14
-33 -2 -70 -10 -22 -23 -40 -30 -40 -7 0 -13 -4 -13 -8 0 -5 -13 -23 -30 -42
-20 -22 -40 -34 -62 -35 -18 -2 -37 -4 -43 -5 -28 -6 -51 2 -60 22 -6 12 -23
26 -40 31 -16 6 -41 18 -54 28 -13 10 -28 16 -34 12 -6 -4 -39 -6 -73 -5 -39
2 -71 -3 -90 -13 -50 -26 -135 -16 -180 21 l-29 23 80 -6 c193 -16 351 9 508
80 101 46 131 48 152 7z m5578 -264 c22 -5 27 -11 22 -26 -3 -11 -3 -25 2 -32
10 -16 13 -56 6 -82 -4 -15 -12 -17 -44 -13 -22 3 -46 11 -54 17 -17 14 -20
70 -4 70 7 0 9 11 6 27 -6 35 10 68 26 55 7 -5 25 -12 40 -16z m-5813 -16 c0
-6 33 -10 75 -10 74 0 100 -13 50 -26 -27 -7 -35 -34 -9 -34 14 0 44 -22 44
-33 0 -3 -10 -7 -22 -10 -29 -8 -58 9 -58 34 0 29 -32 20 -48 -13 -11 -23 -17
-26 -47 -21 -33 5 -38 2 -34 -23 2 -15 -26 -23 -36 -10 -25 33 -145 51 -205
31 -36 -12 -61 -12 -91 2 -23 11 -25 16 -20 49 3 20 13 40 21 44 50 25 104 34
198 32 57 0 113 3 125 7 23 9 57 -3 57 -19z m-4671 -168 c24 -15 27 -21 19
-36 -6 -10 -6 -21 -2 -25 16 -11 32 -48 26 -57 -17 -23 -72 -42 -99 -35 -40
11 -42 39 -4 52 29 10 34 39 7 39 -6 0 -22 9 -35 19 l-25 19 35 21 c41 25 41
25 78 3z m-80 -343 c38 -8 60 -8 86 1 20 7 43 9 51 6 13 -5 13 -9 -1 -36 -15
-28 -19 -30 -73 -30 -177 0 -235 4 -239 16 -3 8 15 15 46 19 28 4 52 13 55 21
6 17 11 17 75 3z m10641 -146 c16 -9 30 -20 30 -24 0 -13 -30 -31 -44 -26 -8
3 -24 -3 -36 -13 -24 -21 -98 -19 -112 2 -15 24 -8 67 12 81 25 17 105 7 150
-20z m-6712 -968 c3 -41 -2 -55 -28 -91 -17 -24 -29 -48 -26 -52 2 -4 1 -14
-3 -21 -12 -20 -79 15 -102 52 -17 30 -17 31 3 59 11 16 31 33 44 38 13 5 24
14 24 19 0 12 62 50 75 47 6 -1 11 -24 13 -51z m1355 -497 c39 -22 85 -77 92
-109 14 -61 -56 -112 -134 -99 -32 5 -36 8 -33 32 2 15 -4 38 -14 53 -14 22
-15 31 -4 70 17 62 47 78 93 53z"/>
<path d="M5748 6021 c7 -4 14 -27 17 -50 2 -24 11 -51 19 -60 19 -20 21 -38 5
-43 -7 -2 -8 -17 -4 -41 10 -50 38 -49 86 3 42 44 89 56 89 21 0 -24 47 -35
63 -14 7 7 18 20 25 28 10 12 9 16 -6 24 -11 6 -32 9 -48 8 -24 -2 -29 2 -34
28 -3 21 -14 34 -37 45 -18 8 -33 24 -35 34 -3 17 -13 20 -78 22 -41 2 -69 0
-62 -5z"/>
<path d="M7885 2014 c-4 -49 -9 -111 -10 -137 l-2 -49 45 -19 c51 -22 59 -20
42 11 -6 11 -14 42 -16 68 -3 26 -10 63 -15 82 -5 19 -9 49 -9 66 0 16 -6 39
-14 49 -12 16 -14 8 -21 -71z"/>
<path d="M3451 2058 c-23 -37 -29 -82 -21 -162 4 -45 2 -123 -5 -193 -13 -123
-8 -146 23 -127 21 13 30 78 36 259 4 132 -2 245 -13 245 -3 0 -12 -10 -20
-22z"/>
<path d="M7610 100 c0 -5 13 -16 28 -24 15 -8 38 -28 51 -45 l24 -31 103 0
103 0 15 30 c13 28 13 31 -5 41 -56 29 -319 54 -319 29z"/>
</g>
</svg>
